#N canvas 0 22 1440 793 10;
#N canvas 0 22 450 278 (subpatch) 0;
#X array channelL 1.00589e+07 float 2;
#X coords 0 1 1.00589e+07 -1 600 140 1 0 0;
#X restore 136 178 graph;
#X obj 139 178 hsl 595 300 0 1 0 0 empty tracker empty -2 -8 0 10 -262144
-258113 -258113 0 1;
#X obj 134 16 bng 50 250 50 0 play empty PLAY 12 25 0 12 -4034 -1 -1
;
#X obj 185 16 bng 50 250 50 0 stop_and_reset empty STOP 12 25 0 12
-258113 -1 -1;
#X obj 236 16 bng 50 250 50 0 pause empty PAUSE 9 25 0 12 -4160 -1
-1;
#X obj 28 20 tgl 50 0 empty empty ON 18 25 0 12 -1 -1 -262144 1 1;
#X msg 28 73 \; pd dsp \$1;
#N canvas 0 22 450 278 (subpatch) 0;
#X array channelR 1.00589e+07 float 2;
#X coords 0 1 1.00589e+07 -1 600 140 1 0 0;
#X restore 136 338 graph;
#N canvas 729 35 570 517 vu 0;
#X text 127 381 Channel 1;
#X obj 134 120 knob 35 35 0 1 0 1 to_nPAN empty empty -8 0 0 1.65798e+07
-258113 -1 -1 1700 0;
#X obj 107 118 bng 20 250 50 0 empty empty empty 17 7 0 10 -262144
-1 -1;
#X obj 107 208 vsl 20 120 0 1 0 0 to_nVOL empty empty 0 -9 0 10 -262144
-1 -1 8330 1;
#X obj 107 185 bng 20 250 50 0 empty empty empty 17 7 0 10 -262144
-1 -1;
#X floatatom 107 332 4 0 0 0 - - -;
#X floatatom 107 146 4 0 0 0 - - -;
#X obj 123 353 tgl 15 0 empty empty M 4 22 0 10 -4160 -1 -1 0 1;
#X obj 149 353 tgl 15 0 empty empty S 4 22 0 10 -257985 -1 -1 0 1;
#X obj 176 353 tgl 15 0 empty empty R 4 22 0 10 -258113 -1 -1 0 1;
#X obj 37 115 loadbang;
#X obj 321 104 - 100;
#X obj 133 208 vu 20 120 empty empty -1 -8 0 10 -99865 -1 0 0;
#X obj 377 104 - 100;
#X msg 37 138 0.5;
#X obj 156 208 vu 20 120 empty empty -1 -8 0 10 -99865 -1 1 0;
#X obj 321 50 r~ nVU1L;
#X obj 377 50 r~ nVU1R;
#X msg 42 208 0.7;
#X obj 321 76 env~ 128;
#X obj 377 76 env~ 128;
#X obj 42 185 loadbang;
#X connect 1 0 6 0;
#X connect 2 0 14 0;
#X connect 3 0 5 0;
#X connect 4 0 18 0;
#X connect 10 0 14 0;
#X connect 11 0 12 0;
#X connect 11 0 12 1;
#X connect 13 0 15 0;
#X connect 13 0 15 1;
#X connect 14 0 1 0;
#X connect 16 0 19 0;
#X connect 17 0 20 0;
#X connect 18 0 3 0;
#X connect 19 0 11 0;
#X connect 20 0 13 0;
#X connect 21 0 18 0;
#X coords 0 -1 1 1 110 300 1 100 100;
#X restore 26 178 pd vu;
#N canvas 729 35 570 517 vu 0;
#X obj 134 120 knob 35 35 0 1 0 1 PAN_MASTER empty empty -8 0 0 1.65798e+07
-258113 -1 -1 1700 0;
#X obj 107 118 bng 20 250 50 0 empty empty empty 17 7 0 10 -262144
-1 -1;
#X obj 107 208 vsl 20 120 0 1 0 0 VOL_MASTER empty empty 0 -9 0 10
-262144 -1 -1 8330 1;
#X obj 107 185 bng 20 250 50 0 empty empty empty 17 7 0 10 -262144
-1 -1;
#X floatatom 107 332 4 0 0 0 - - -;
#X floatatom 107 146 4 0 0 0 - - -;
#X obj 134 353 tgl 15 0 empty empty M 4 22 0 10 -4160 -1 -1 0 1;
#X obj 160 353 tgl 15 0 empty empty S 4 22 0 10 -257985 -1 -1 0 1;
#X obj 37 115 loadbang;
#X obj 321 104 - 100;
#X obj 133 208 vu 20 120 empty empty -1 -8 0 10 -99865 -1 0 0;
#X obj 395 104 - 100;
#X msg 37 138 0.5;
#X obj 156 208 vu 20 120 empty empty -1 -8 0 10 -99865 -1 1 0;
#X msg 42 208 0.7;
#X obj 321 76 env~ 128;
#X obj 395 76 env~ 128;
#X obj 42 185 loadbang;
#X obj 395 50 r~ MASTER_R;
#X obj 321 50 r~ MASTER_L;
#X text 134 381 MASTER;
#X connect 0 0 5 0;
#X connect 1 0 12 0;
#X connect 2 0 4 0;
#X connect 3 0 14 0;
#X connect 8 0 12 0;
#X connect 9 0 10 0;
#X connect 9 0 10 1;
#X connect 11 0 13 0;
#X connect 11 0 13 1;
#X connect 12 0 0 0;
#X connect 14 0 2 0;
#X connect 15 0 9 0;
#X connect 16 0 11 0;
#X connect 17 0 14 0;
#X connect 18 0 16 0;
#X connect 19 0 15 0;
#X coords 0 -1 1 1 110 300 1 100 100;
#X restore 1040 44 pd vu;
#N canvas 41 31 667 732 PLAYBACK 0;
#X obj 172 630 *~;
#X obj 217 630 *~;
#X obj 89 526 vsl 30 60 0 1 0 0 empty to_nVOL volume 0 70 0 10 -262144
-1 -1 4130 1;
#X obj 169 123 soundfiler;
#X floatatom 232 147 30 0 0 0 - - -;
#X obj 232 172 s sampleSize;
#X obj 169 196 expr 44100 / $f1;
#X floatatom 232 221 20 0 0 0 - - -;
#X obj 170 285 phasor~;
#X obj 170 319 *~;
#X obj 227 302 r sampleSize;
#X obj 172 446 tabread4~ channelL;
#X obj 293 446 tabread4~ channelR;
#X obj 442 385 snapshot~;
#X obj 442 364 metro 50;
#X floatatom 442 406 20 0 0 0 - - -;
#X obj 442 426 /;
#X obj 497 426 r sampleSize;
#X floatatom 442 446 5 0 0 0 - - tracker;
#X obj 62 243 t b b;
#X msg 89 268 0;
#X msg 63 345 0;
#X obj 423 259 hsl 128 15 -1 1 0 0 empty empty playback_speed 135 7
0 10 -262144 -1 -1 6378 1;
#X floatatom 420 279 30 0 0 0 - - -;
#X text 87 283 pause;
#X text 420 194 play;
#X obj 420 212 r play;
#X obj 101 243 r pause;
#X obj 62 218 r stop_and_reset;
#X floatatom 420 237 30 0 0 0 - - -;
#X obj 442 344 loadbang;
#X text 445 327 tracker;
#X text 60 363 stop;
#X obj 296 519 expr 1 - $f1;
#X floatatom 296 541 5 0 0 0 - - -;
#X floatatom 332 541 5 0 0 0 - - -;
#X obj 387 484 knob 32 32 0 1 0 0 empty to_nPAN PAN 0 -8 0 12 -262144
-1 -1 1550 1;
#X obj 93 647 s~ nVU1L;
#X obj 252 647 s~ nVU1R;
#X obj 172 572 *~;
#X msg 169 95 read -resize \$1 channelL channelR;
#X obj 169 48 bng 15 250 50 0 empty empty empty 17 7 0 10 -262144 -1
-1;
#X obj 169 70 openpanel;
#X obj 172 691 s~ MASTER;
#X connect 0 0 37 0;
#X connect 0 0 43 0;
#X connect 1 0 38 0;
#X connect 1 0 43 0;
#X connect 2 0 39 1;
#X connect 3 0 4 0;
#X connect 3 0 6 0;
#X connect 4 0 5 0;
#X connect 6 0 7 0;
#X connect 6 0 8 0;
#X connect 7 0 29 0;
#X connect 8 0 9 0;
#X connect 9 0 11 0;
#X connect 9 0 12 0;
#X connect 9 0 13 0;
#X connect 10 0 9 1;
#X connect 11 0 39 0;
#X connect 12 0 39 0;
#X connect 13 0 15 0;
#X connect 14 0 13 0;
#X connect 15 0 16 0;
#X connect 16 0 18 0;
#X connect 17 0 16 1;
#X connect 19 0 21 0;
#X connect 19 1 20 0;
#X connect 20 0 8 0;
#X connect 21 0 8 1;
#X connect 22 0 23 0;
#X connect 26 0 29 0;
#X connect 27 0 20 0;
#X connect 28 0 19 0;
#X connect 29 0 22 0;
#X connect 29 0 8 0;
#X connect 30 0 14 0;
#X connect 33 0 34 0;
#X connect 34 0 0 1;
#X connect 35 0 1 1;
#X connect 36 0 33 0;
#X connect 36 0 35 0;
#X connect 39 0 0 0;
#X connect 39 0 1 0;
#X connect 40 0 3 0;
#X connect 41 0 42 0;
#X connect 42 0 40 0;
#X restore 459 40 pd PLAYBACK;
#N canvas 295 159 291 207 RECORDING 0;
#X obj 38 46 *~;
#X obj 38 22 adc~ 1 2;
#X msg 108 22 start;
#X msg 173 22 stop;
#X obj 84 107 *~;
#X obj 38 75 tabwrite~ channelL;
#X obj 84 133 tabwrite~ channelR;
#X connect 0 0 5 0;
#X connect 1 0 0 0;
#X connect 1 1 4 0;
#X connect 2 0 5 0;
#X connect 2 0 6 0;
#X connect 3 0 5 0;
#X connect 3 0 6 0;
#X connect 4 0 6 0;
#X restore 459 62 pd RECORDING;
#N canvas 1034 286 397 272 MASTER 0;
#X obj 129 195 dac~ 1 2;
#X obj 129 134 *~;
#X obj 174 134 *~;
#X obj 46 30 vsl 30 60 0 1 0 0 empty VOL_MASTER volume 0 70 0 10 -262144
-1 -1 4130 1;
#X obj 129 76 *~;
#X obj 209 151 s~ MASTER_R;
#X obj 36 151 s~ MASTER_L;
#X obj 129 28 r~ MASTER;
#X connect 1 0 0 0;
#X connect 1 0 6 0;
#X connect 2 0 0 1;
#X connect 2 0 5 0;
#X connect 3 0 4 1;
#X connect 4 0 1 0;
#X connect 4 0 2 0;
#X connect 7 0 4 0;
#X restore 459 84 pd MASTER;
#X connect 5 0 6 0;
