#N canvas 690 195 717 490 10;
#X obj 100 94 hsl 128 15 0 127 0 0 empty empty empty -2 -8 0 10 -262144
-1 -1 2100 1;
#X obj 189 151 hradio 15 1 0 8 empty empty empty 0 -8 0 10 -262144
-1 -1 1;
#X floatatom 97 122 5 0 0 0 - - -;
#X obj 97 151 + 400;
#X floatatom 97 181 5 0 0 0 - - -;
#X obj 97 210 osc~;
#X obj 97 284 dac~;
#X obj 97 254 *~;
#X floatatom 189 179 5 0 0 0 - - -;
#X obj 189 208 / 6;
#X floatatom 189 238 5 0 0 0 - - -;
#X connect 0 0 2 0;
#X connect 1 0 8 0;
#X connect 2 0 3 0;
#X connect 3 0 4 0;
#X connect 4 0 5 0;
#X connect 5 0 7 0;
#X connect 7 0 6 0;
#X connect 7 0 6 1;
#X connect 8 0 9 0;
#X connect 9 0 10 0;
#X connect 10 0 7 1;
