#N canvas 142 23 835 613 10;
#X obj 162 45 bng 15 250 50 0 empty empty empty 17 7 0 10 -262144 -1
-1;
#X obj 162 67 openpanel;
#N canvas 0 22 450 278 (subpatch) 0;
#X array array1 5.53033e+06 float 2;
#X coords 0 1 5.53033e+06 -1 240 140 1 0 0;
#X restore 402 248 graph;
#X obj 162 118 soundfiler;
#X obj 162 143 expr 44100 / $f1;
#X floatatom 162 167 5 0 0.701 0 - - -;
#X obj 162 190 phasor~;
#X obj 328 238 unsig~ 50;
#X obj 405 396 hsl 240 15 0 1 0 0 empty pos empty -2 -8 0 10 -262144
-1 -1 19866 1;
#X obj 162 213 *~;
#X obj 162 237 tabread4~ array1;
#X obj 162 262 *~;
#X floatatom 269 237 5 0 1.09 0 - - -;
#X msg 269 259 \$1 20;
#X obj 270 280 line~;
#X obj 162 289 hip~ 5;
#X msg 162 92 read -resize \$1 array1;
#X msg 388 137 \; array1 normalize;
#X text 283 52;
#X obj 162 323 dac~;
#X connect 0 0 1 0;
#X connect 1 0 16 0;
#X connect 3 0 4 0;
#X connect 3 0 9 1;
#X connect 4 0 5 0;
#X connect 5 0 6 0;
#X connect 6 0 7 0;
#X connect 6 0 9 0;
#X connect 7 0 8 0;
#X connect 9 0 10 0;
#X connect 10 0 11 0;
#X connect 11 0 15 0;
#X connect 12 0 13 0;
#X connect 13 0 14 0;
#X connect 14 0 11 1;
#X connect 15 0 19 0;
#X connect 15 0 19 1;
#X connect 16 0 3 0;
