#N canvas 598 126 717 490 10;
#X obj 64 148 hsl 128 15 0 127 0 0 empty empty empty -2 -8 0 10 -262144
-1 -1 0 1;
#X floatatom 61 175 5 0 0 0 - - -;
#X obj 61 204 + 400;
#X floatatom 61 234 5 0 0 0 - - -;
#X obj 61 263 osc~;
#X obj 61 407 dac~;
#X obj 61 377 *~;
#X obj 192 301 vu 15 120 empty empty -1 -8 0 10 -66577 -1 1 0;
#X obj 191 270 pvu~;
#X obj 89 377 tgl 15 0 empty empty empty 17 7 0 10 -262144 -1 -1 0
1;
#X floatatom 189 445 5 0 0 0 - - -;
#X obj 166 299 vsl 15 120 0 1 0 0 empty empty empty 0 -9 0 10 -262144
-1 -1 11900 1;
#X obj 61 300 *~;
#X connect 0 0 1 0;
#X connect 1 0 2 0;
#X connect 2 0 3 0;
#X connect 3 0 4 0;
#X connect 4 0 12 0;
#X connect 6 0 5 0;
#X connect 6 0 5 1;
#X connect 6 0 8 0;
#X connect 7 0 10 0;
#X connect 8 0 7 0;
#X connect 9 0 6 1;
#X connect 11 0 12 1;
#X connect 12 0 6 0;
